<?xml version="1.0" encoding="UTF-8"?>
<!DOCTYPE svg PUBLIC "-//W3C//DTD SVG 1.1//EN" "http://www.w3.org/Graphics/SVG/1.1/DTD/svg11.dtd">
<svg xmlns="http://www.w3.org/2000/svg" version="1.1" width="1280px" height="485px" style="shape-rendering:geometricPrecision; text-rendering:geometricPrecision; image-rendering:optimizeQuality; fill-rule:evenodd; clip-rule:evenodd" xmlns:xlink="http://www.w3.org/1999/xlink">
<g><path style="opacity:1" fill="#fefefe" d="M 39.5,0.5 C 39.5,0.166667 39.5,-0.166667 39.5,-0.5C 147.833,-0.5 256.167,-0.5 364.5,-0.5C 364.5,-0.166667 364.5,0.166667 364.5,0.5C 352.819,0.839467 342.152,4.1728 332.5,10.5C 324.358,14.3058 317.358,19.6392 311.5,26.5C 300.913,37.3371 294.247,50.3371 291.5,65.5C 290.691,67.2922 290.191,69.2922 290,71.5C 289.667,151.5 289.333,231.5 289,311.5C 288.433,314.168 287.933,316.834 287.5,319.5C 278.784,352.178 258.117,372.845 225.5,381.5C 222.505,381.294 219.838,381.96 217.5,383.5C 178.918,388.445 148.751,375.112 127,343.5C 125.369,339.249 123.536,335.249 121.5,331.5C 118.273,322.476 116.439,313.143 116,303.5C 115.5,228.834 115.333,154.167 115.5,79.5C 115.5,78.1667 115.5,76.8333 115.5,75.5C 115.179,65.8793 112.846,56.8793 108.5,48.5C 97.2787,23.6197 78.2787,8.28639 51.5,2.5C 47.7905,0.864335 43.7905,0.197669 39.5,0.5 Z"/></g>
<g><path style="opacity:1" fill="#fefefe" d="M 405.5,-0.5 C 420.5,-0.5 435.5,-0.5 450.5,-0.5C 450.167,159.001 450.5,318.334 451.5,477.5C 464.167,478.833 476.833,478.833 489.5,477.5C 526.098,473.966 550.598,454.966 563,420.5C 564.785,415.314 565.618,409.98 565.5,404.5C 566.498,374.671 566.831,344.671 566.5,314.5C 586.169,314.333 605.836,314.5 625.5,315C 646.999,353.5 667.833,392.334 688,431.5C 701.707,458.28 723.54,473.614 753.5,477.5C 781.662,478.498 809.995,478.831 838.5,478.5C 838.737,477.209 838.404,476.209 837.5,475.5C 837.573,473.973 836.906,472.973 835.5,472.5C 834.921,469.669 833.588,467.336 831.5,465.5C 830.97,463.076 830.136,460.743 829,458.5C 798.937,404.367 769.437,350.033 740.5,295.5C 779.82,278.184 805.154,248.851 816.5,207.5C 821.188,190.636 823.188,173.303 822.5,155.5C 823.073,138.624 820.74,122.291 815.5,106.5C 800.622,60.1219 770.289,28.6219 724.5,12C 707.226,6.50862 689.56,3.00862 671.5,1.5C 666.36,0.511923 661.026,0.178589 655.5,0.5C 655.5,0.166667 655.5,-0.166667 655.5,-0.5C 708.833,-0.5 762.167,-0.5 815.5,-0.5C 825.551,17.9304 835.384,36.597 845,55.5C 849.608,63.7297 854.441,71.7297 859.5,79.5C 862.385,86.9383 866.052,93.9383 870.5,100.5C 910.15,173.13 949.816,245.796 989.5,318.5C 989.5,371.833 989.5,425.167 989.5,478.5C 1028,478.832 1066.34,478.499 1104.5,477.5C 1104.5,424.833 1104.5,372.167 1104.5,319.5C 1120.19,290.124 1135.85,260.791 1151.5,231.5C 1154.53,227.435 1157.2,223.102 1159.5,218.5C 1176.95,185.916 1194.62,153.583 1212.5,121.5C 1214.91,118.632 1216.58,115.299 1217.5,111.5C 1237.75,76.0436 1257.41,40.3769 1276.5,4.5C 1277.4,3.70951 1278.07,2.70951 1278.5,1.5C 1278.83,1.5 1279.17,1.5 1279.5,1.5C 1279.5,162.5 1279.5,323.5 1279.5,484.5C 923.833,484.5 568.167,484.5 212.5,484.5C 249.814,483.735 285.148,474.902 318.5,458C 369.283,429.3 397.617,385.8 403.5,327.5C 404.473,325.052 404.806,322.385 404.5,319.5C 405.499,213.001 405.833,106.335 405.5,-0.5 Z"/></g>
<g><path style="opacity:1" fill="#fdfefe" d="M 898.5,-0.5 C 996.833,-0.5 1095.17,-0.5 1193.5,-0.5C 1193.5,-0.166667 1193.5,0.166667 1193.5,0.5C 1181.87,1.06822 1171.21,4.40155 1161.5,10.5C 1146.9,17.93 1135.74,28.93 1128,43.5C 1103.11,92.9396 1078.61,142.273 1054.5,191.5C 1052.4,194.72 1050.06,197.72 1047.5,200.5C 1046.56,200.392 1045.72,200.059 1045,199.5C 1017.22,143.94 988.886,88.6062 960,33.5C 944.138,13.6549 923.638,2.32155 898.5,-0.5 Z"/></g>
<g><path style="opacity:1" fill="#7689fd" d="M 1193.5,0.5 C 1193.5,0.166667 1193.5,-0.166667 1193.5,-0.5C 1222.17,-0.5 1250.83,-0.5 1279.5,-0.5C 1279.5,0.166667 1279.5,0.833333 1279.5,1.5C 1279.17,1.5 1278.83,1.5 1278.5,1.5C 1250.34,0.502013 1222,0.16868 1193.5,0.5 Z"/></g>
<g><path style="opacity:1" fill="#1226ac" d="M 454.5,0.5 C 521.5,0.5 588.5,0.5 655.5,0.5C 661.026,0.178589 666.36,0.511923 671.5,1.5C 666.167,1.5 660.833,1.5 655.5,1.5C 589.267,1.18875 523.267,1.52208 457.5,2.5C 455.97,2.36015 454.97,1.69348 454.5,0.5 Z"/></g>
<g><path style="opacity:1" fill="#1123b3" d="M 1193.5,0.5 C 1222,0.16868 1250.34,0.502013 1278.5,1.5C 1278.07,2.70951 1277.4,3.70951 1276.5,4.5C 1276.5,3.5 1276.5,2.5 1276.5,1.5C 1275.5,1.5 1274.5,1.5 1273.5,1.5C 1273.72,2.67504 1273.39,3.67504 1272.5,4.5C 1271.67,3.58529 1270.67,2.91862 1269.5,2.5C 1257.52,3.1469 1245.52,3.48024 1233.5,3.5C 1221.25,3.44979 1209.09,2.78313 1197,1.5C 1193.32,1.87656 1189.82,2.70989 1186.5,4C 1190.87,4.17248 1195.2,4.67248 1199.5,5.5C 1193.39,6.01292 1187.39,7.01292 1181.5,8.5C 1179.43,8.1758 1179.1,7.34247 1180.5,6C 1178.19,5.50335 1175.86,5.33669 1173.5,5.5C 1173.5,6.5 1173.5,7.5 1173.5,8.5C 1169.37,8.572 1165.37,9.23867 1161.5,10.5C 1171.21,4.40155 1181.87,1.06822 1193.5,0.5 Z"/></g>
<g><path style="opacity:1" fill="#8b96e8" d="M 364.5,0.5 C 364.5,0.166667 364.5,-0.166667 364.5,-0.5C 378.167,-0.5 391.833,-0.5 405.5,-0.5C 405.833,106.335 405.499,213.001 404.5,319.5C 404.5,213.167 404.5,106.833 404.5,0.5C 391.167,0.5 377.833,0.5 364.5,0.5 Z"/></g>
<g><path style="opacity:1" fill="#081fc3" d="M 4.5,0.5 C 4.5,1.16667 4.5,1.83333 4.5,2.5C 3.16671,56.3292 2.50004,110.496 2.5,165C 2.66667,219.167 2.83333,273.333 3,327.5C 3.33333,327.833 3.66667,328.167 4,328.5C 4.49796,325.518 4.66463,322.518 4.5,319.5C 5.30912,321.292 5.80912,323.292 6,325.5C 6.31525,323.414 6.81525,321.414 7.5,319.5C 8.83329,267.171 9.49995,214.504 9.5,161.5C 9.33333,108.833 9.16667,56.1667 9,3.5C 8.61742,2.94404 8.11742,2.61071 7.5,2.5C 9.56173,2.43822 11.7284,2.43822 14,2.5C 14.3333,113.5 14.6667,224.5 15,335.5C 15.5,224.834 15.6667,114.167 15.5,3.5C 22.2671,3.82074 28.9337,3.15408 35.5,1.5C 40.8069,2.2756 46.1402,2.60893 51.5,2.5C 78.2787,8.28639 97.2787,23.6197 108.5,48.5C 108.665,51.8499 108.498,55.1832 108,58.5C 107.085,57.6721 106.419,56.6721 106,55.5C 105.833,56 105.667,56.5 105.5,57C 107.61,58.7502 109.277,60.9168 110.5,63.5C 111.167,146.833 111.833,230.167 112.5,313.5C 113.94,318.683 115.607,323.849 117.5,329C 114.922,336.567 115.755,337.067 120,330.5C 120.383,331.056 120.883,331.389 121.5,331.5C 123.536,335.249 125.369,339.249 127,343.5C 148.751,375.112 178.918,388.445 217.5,383.5C 220.553,383.889 223.22,383.223 225.5,381.5C 258.117,372.845 278.784,352.178 287.5,319.5C 289.164,318.051 289.998,316.051 290,313.5C 290.5,234.167 290.667,154.834 290.5,75.5C 291.117,75.3893 291.617,75.056 292,74.5C 292.333,76.1667 292.667,77.8333 293,79.5C 293.667,155.833 293.667,232.167 293,308.5C 291.763,312.06 291.263,315.727 291.5,319.5C 292.5,319.5 293.5,319.5 294.5,319.5C 295.386,306.282 296.386,306.282 297.5,319.5C 298.5,319.5 299.5,319.5 300.5,319.5C 300.533,314.901 299.867,310.401 298.5,306C 299.826,230.515 299.826,155.015 298.5,79.5C 297.667,148.831 297.167,218.164 297,287.5C 296.829,292.864 296.329,298.198 295.5,303.5C 294.667,227.502 294.167,151.502 294,75.5C 292.646,71.6372 292.146,67.6372 292.5,63.5C 293.5,63.5 294.5,63.5 295.5,63.5C 296.628,71.3011 297.294,71.3011 297.5,63.5C 299.124,63.6399 300.29,62.9733 301,61.5C 301.434,58.8208 301.268,56.1541 300.5,53.5C 300.878,51.8651 301.544,50.3651 302.5,49C 302.095,48.0546 301.428,47.3879 300.5,47C 301.525,44.9285 302.358,42.7619 303,40.5C 303.49,41.7932 303.657,43.1266 303.5,44.5C 310.371,45.4049 315.038,42.7383 317.5,36.5C 317.297,34.7923 316.464,33.459 315,32.5C 314.638,37.9251 311.804,40.2584 306.5,39.5C 308.363,35.245 310.03,30.9117 311.5,26.5C 317.358,19.6392 324.358,14.3058 332.5,10.5C 336.796,9.53747 341.129,9.3708 345.5,10C 345.833,10.3333 346.167,10.6667 346.5,11C 344.423,11.1922 342.423,11.6922 340.5,12.5C 343.935,14.5626 347.602,15.3959 351.5,15C 349.714,14.8038 348.381,13.9705 347.5,12.5C 351.122,11.6747 354.789,11.1747 358.5,11C 356.323,9.79777 353.989,9.29777 351.5,9.5C 351.719,8.32496 351.386,7.32496 350.5,6.5C 348.401,8.52019 346.067,8.85352 343.5,7.5C 345.044,5.7527 347.044,4.7527 349.5,4.5C 355.483,6.0012 361.483,6.33454 367.5,5.5C 364.215,4.67636 360.882,4.17636 357.5,4C 359.556,2.48057 361.89,1.64723 364.5,1.5C 376.995,1.79257 389.328,2.79257 401.5,4.5C 402.086,4.29069 402.586,3.95735 403,3.5C 403.5,111.499 403.667,219.499 403.5,327.5C 397.617,385.8 369.283,429.3 318.5,458C 285.148,474.902 249.814,483.735 212.5,484.5C 203.5,484.5 194.5,484.5 185.5,484.5C 162.645,482.862 140.312,478.529 118.5,471.5C 118.047,470.542 117.381,469.708 116.5,469C 113.475,468.867 110.808,467.867 108.5,466C 109.624,465.751 110.624,465.251 111.5,464.5C 110.833,464.167 110.167,463.833 109.5,463.5C 106.167,464.7 102.833,464.7 99.5,463.5C 99.5164,459.726 97.8497,458.726 94.5,460.5C 94.0024,459.397 93.6691,458.397 93.5,457.5C 91.2727,458.053 88.9393,458.053 86.5,457.5C 32.7522,427.369 4.41891,381.369 1.5,319.5C 1.5,213.167 1.5,106.833 1.5,0.5C 2.5,0.5 3.5,0.5 4.5,0.5 Z"/></g>
<g><path style="opacity:1" fill="#8d9be3" d="M 450.5,-0.5 C 518.833,-0.5 587.167,-0.5 655.5,-0.5C 655.5,-0.166667 655.5,0.166667 655.5,0.5C 588.5,0.5 521.5,0.5 454.5,0.5C 453.5,0.5 452.5,0.5 451.5,0.5C 451.5,159.5 451.5,318.5 451.5,477.5C 450.5,318.334 450.167,159.001 450.5,-0.5 Z"/></g>
<g><path style="opacity:1" fill="#091fc2" d="M 655.5,1.5 C 660.833,1.5 666.167,1.5 671.5,1.5C 689.56,3.00862 707.226,6.50862 724.5,12C 770.289,28.6219 800.622,60.1219 815.5,106.5C 815.749,112.869 816.749,119.035 818.5,125C 817.439,131.14 817.273,137.306 818,143.5C 818.206,140.377 818.873,137.377 820,134.5C 820.667,150.833 820.667,167.167 820,183.5C 819.061,180.879 818.228,178.212 817.5,175.5C 816.147,186.223 815.813,196.889 816.5,207.5C 805.154,248.851 779.82,278.184 740.5,295.5C 769.437,350.033 798.937,404.367 829,458.5C 830.136,460.743 830.97,463.076 831.5,465.5C 801.285,466.44 770.952,466.773 740.5,466.5C 742.833,467.167 745.167,467.833 747.5,468.5C 761.5,468.833 775.5,469.167 789.5,469.5C 803.888,469.491 818.055,468.825 832,467.5C 832.494,469.134 832.66,470.801 832.5,472.5C 833.5,472.5 834.5,472.5 835.5,472.5C 836.906,472.973 837.573,473.973 837.5,475.5C 809.853,477.492 781.853,478.158 753.5,477.5C 723.54,473.614 701.707,458.28 688,431.5C 667.833,392.334 646.999,353.5 625.5,315C 605.836,314.5 586.169,314.333 566.5,314.5C 564.167,314.5 561.833,314.5 559.5,314.5C 559.5,315.5 559.5,316.5 559.5,317.5C 561.5,317.5 563.5,317.5 565.5,317.5C 565.5,346.5 565.5,375.5 565.5,404.5C 565.618,409.98 564.785,415.314 563,420.5C 550.598,454.966 526.098,473.966 489.5,477.5C 477.167,477.5 464.833,477.5 452.5,477.5C 452.5,475.833 452.5,474.167 452.5,472.5C 454.308,471.082 454.975,469.082 454.5,466.5C 455.675,466.719 456.675,466.386 457.5,465.5C 457.062,464.494 456.396,464.494 455.5,465.5C 454.702,465.043 454.369,464.376 454.5,463.5C 455.5,463.5 456.5,463.5 457.5,463.5C 457.667,312.833 457.5,162.166 457,11.5C 456.583,12.756 455.75,13.4226 454.5,13.5C 454.5,10.1667 454.5,6.83333 454.5,3.5C 456.612,4.27513 458.612,4.27513 460.5,3.5C 460.5,157.833 460.5,312.167 460.5,466.5C 468.528,466.831 476.528,466.498 484.5,465.5C 483.562,464.447 482.395,463.78 481,463.5C 477.986,464.693 474.819,465.359 471.5,465.5C 468.387,465.438 465.554,464.771 463,463.5C 462.5,311.5 462.333,159.5 462.5,7.5C 526.837,7.1667 591.17,7.50004 655.5,8.5C 659.87,9.20264 664.204,10.036 668.5,11C 600.183,12.4548 531.85,12.9548 463.5,12.5C 463.5,13.5 463.5,14.5 463.5,15.5C 527.503,15.8333 591.503,15.5 655.5,14.5C 667.943,13.2368 680.277,11.4035 692.5,9C 680.145,8.95744 667.811,7.95744 655.5,6C 590.826,6.16399 526.492,5.33065 462.5,3.5C 527.175,4.16313 591.509,3.49646 655.5,1.5 Z"/></g>
<g><path style="opacity:1" fill="#081ec7" d="M 460.5,3.5 C 461.167,3.5 461.833,3.5 462.5,3.5C 526.492,5.33065 590.826,6.16399 655.5,6C 667.811,7.95744 680.145,8.95744 692.5,9C 680.277,11.4035 667.943,13.2368 655.5,14.5C 591.503,15.5 527.503,15.8333 463.5,15.5C 463.5,14.5 463.5,13.5 463.5,12.5C 531.85,12.9548 600.183,12.4548 668.5,11C 664.204,10.036 659.87,9.20264 655.5,8.5C 591.17,7.50004 526.837,7.1667 462.5,7.5C 462.333,159.5 462.5,311.5 463,463.5C 465.554,464.771 468.387,465.438 471.5,465.5C 474.819,465.359 477.986,464.693 481,463.5C 482.395,463.78 483.562,464.447 484.5,465.5C 476.528,466.498 468.528,466.831 460.5,466.5C 460.5,312.167 460.5,157.833 460.5,3.5 Z"/></g>
<g><path style="opacity:1" fill="#091fc3" d="M 815.5,-0.5 C 843.167,-0.5 870.833,-0.5 898.5,-0.5C 923.638,2.32155 944.138,13.6549 960,33.5C 988.886,88.6062 1017.22,143.94 1045,199.5C 1045.72,200.059 1046.56,200.392 1047.5,200.5C 1050.06,197.72 1052.4,194.72 1054.5,191.5C 1078.61,142.273 1103.11,92.9396 1128,43.5C 1135.74,28.93 1146.9,17.93 1161.5,10.5C 1165.37,9.23867 1169.37,8.572 1173.5,8.5C 1173.5,7.5 1173.5,6.5 1173.5,5.5C 1175.86,5.33669 1178.19,5.50335 1180.5,6C 1179.1,7.34247 1179.43,8.1758 1181.5,8.5C 1187.39,7.01292 1193.39,6.01292 1199.5,5.5C 1195.2,4.67248 1190.87,4.17248 1186.5,4C 1189.82,2.70989 1193.32,1.87656 1197,1.5C 1209.09,2.78313 1221.25,3.44979 1233.5,3.5C 1245.52,3.48024 1257.52,3.1469 1269.5,2.5C 1270.67,2.91862 1271.67,3.58529 1272.5,4.5C 1273.39,3.67504 1273.72,2.67504 1273.5,1.5C 1274.5,1.5 1275.5,1.5 1276.5,1.5C 1276.5,2.5 1276.5,3.5 1276.5,4.5C 1257.41,40.3769 1237.75,76.0436 1217.5,111.5C 1216.14,112.007 1215.14,113.007 1214.5,114.5C 1213.61,113.675 1213.28,112.675 1213.5,111.5C 1212.5,111.5 1211.5,111.5 1210.5,111.5C 1211.88,114.658 1212.54,117.991 1212.5,121.5C 1194.62,153.583 1176.95,185.916 1159.5,218.5C 1158.17,218.5 1156.83,218.5 1155.5,218.5C 1154.16,222.853 1152.83,227.186 1151.5,231.5C 1135.85,260.791 1120.19,290.124 1104.5,319.5C 1103.5,370.331 1103.17,421.331 1103.5,472.5C 954.167,473.167 954.167,473.833 1103.5,474.5C 1085.18,475.833 1066.51,476.5 1047.5,476.5C 1028.43,476.494 1009.43,476.161 990.5,475.5C 990.832,422.997 990.499,370.664 989.5,318.5C 949.816,245.796 910.15,173.13 870.5,100.5C 870.246,96.0613 869.412,91.728 868,87.5C 866.644,86.6198 865.144,86.2865 863.5,86.5C 863.649,85.448 863.483,84.448 863,83.5C 862.26,81.6813 861.093,80.3479 859.5,79.5C 854.441,71.7297 849.608,63.7297 845,55.5C 835.384,36.597 825.551,17.9304 815.5,-0.5 Z"/></g>
<g><path style="opacity:1" fill="#3140ad" d="M 0.5,-0.5 C 13.5,-0.5 26.5,-0.5 39.5,-0.5C 39.5,-0.166667 39.5,0.166667 39.5,0.5C 27.8333,0.5 16.1667,0.5 4.5,0.5C 3.5,0.5 2.5,0.5 1.5,0.5C 1.5,106.833 1.5,213.167 1.5,319.5C 0.500525,213.001 0.167191,106.335 0.5,-0.5 Z"/></g>
<g><path style="opacity:1" fill="#081ccb" d="M 4.5,2.5 C 4.5,108.167 4.5,213.833 4.5,319.5C 4.66463,322.518 4.49796,325.518 4,328.5C 3.66667,328.167 3.33333,327.833 3,327.5C 2.83333,273.333 2.66667,219.167 2.5,165C 2.50004,110.496 3.16671,56.3292 4.5,2.5 Z"/></g>
<g><path style="opacity:1" fill="#0723b9" d="M 4.5,0.5 C 16.1667,0.5 27.8333,0.5 39.5,0.5C 43.7905,0.197669 47.7905,0.864335 51.5,2.5C 46.1402,2.60893 40.8069,2.2756 35.5,1.5C 28.9337,3.15408 22.2671,3.82074 15.5,3.5C 15.6667,114.167 15.5,224.834 15,335.5C 14.6667,224.5 14.3333,113.5 14,2.5C 11.7284,2.43822 9.56173,2.43822 7.5,2.5C 6.16667,108.167 6.16667,213.833 7.5,319.5C 6.81525,321.414 6.31525,323.414 6,325.5C 5.80912,323.292 5.30912,321.292 4.5,319.5C 4.5,213.833 4.5,108.167 4.5,2.5C 4.5,1.83333 4.5,1.16667 4.5,0.5 Z"/></g>
<g><path style="opacity:1" fill="#081dcb" d="M 7.5,2.5 C 8.11742,2.61071 8.61742,2.94404 9,3.5C 9.16667,56.1667 9.33333,108.833 9.5,161.5C 9.49995,214.504 8.83329,267.171 7.5,319.5C 6.16667,213.833 6.16667,108.167 7.5,2.5 Z"/></g>
<g><path style="opacity:1" fill="#1722b0" d="M 364.5,0.5 C 377.833,0.5 391.167,0.5 404.5,0.5C 404.5,106.833 404.5,213.167 404.5,319.5C 404.806,322.385 404.473,325.052 403.5,327.5C 403.667,219.499 403.5,111.499 403,3.5C 402.586,3.95735 402.086,4.29069 401.5,4.5C 389.328,2.79257 376.995,1.79257 364.5,1.5C 361.89,1.64723 359.556,2.48057 357.5,4C 360.882,4.17636 364.215,4.67636 367.5,5.5C 361.483,6.33454 355.483,6.0012 349.5,4.5C 347.044,4.7527 345.044,5.7527 343.5,7.5C 346.067,8.85352 348.401,8.52019 350.5,6.5C 351.386,7.32496 351.719,8.32496 351.5,9.5C 353.989,9.29777 356.323,9.79777 358.5,11C 354.789,11.1747 351.122,11.6747 347.5,12.5C 348.381,13.9705 349.714,14.8038 351.5,15C 347.602,15.3959 343.935,14.5626 340.5,12.5C 342.423,11.6922 344.423,11.1922 346.5,11C 346.167,10.6667 345.833,10.3333 345.5,10C 341.129,9.3708 336.796,9.53747 332.5,10.5C 342.152,4.1728 352.819,0.839467 364.5,0.5 Z"/></g>
<g><path style="opacity:1" fill="#1923b1" d="M 454.5,0.5 C 454.97,1.69348 455.97,2.36015 457.5,2.5C 523.267,1.52208 589.267,1.18875 655.5,1.5C 591.509,3.49646 527.175,4.16313 462.5,3.5C 461.833,3.5 461.167,3.5 460.5,3.5C 458.612,4.27513 456.612,4.27513 454.5,3.5C 453.883,3.38929 453.383,3.05596 453,2.5C 452.5,159.166 452.333,315.833 452.5,472.5C 452.5,474.167 452.5,475.833 452.5,477.5C 464.833,477.5 477.167,477.5 489.5,477.5C 476.833,478.833 464.167,478.833 451.5,477.5C 451.5,318.5 451.5,159.5 451.5,0.5C 452.5,0.5 453.5,0.5 454.5,0.5 Z"/></g>
<g><path style="opacity:1" fill="#091cd2" d="M 454.5,3.5 C 454.5,6.83333 454.5,10.1667 454.5,13.5C 454.5,163.5 454.5,313.5 454.5,463.5C 454.369,464.376 454.702,465.043 455.5,465.5C 456.396,464.494 457.062,464.494 457.5,465.5C 456.675,466.386 455.675,466.719 454.5,466.5C 454.975,469.082 454.308,471.082 452.5,472.5C 452.333,315.833 452.5,159.166 453,2.5C 453.383,3.05596 453.883,3.38929 454.5,3.5 Z"/></g>
<g><path style="opacity:1" fill="#0520c7" d="M 454.5,463.5 C 454.5,313.5 454.5,163.5 454.5,13.5C 455.75,13.4226 456.583,12.756 457,11.5C 457.5,162.166 457.667,312.833 457.5,463.5C 456.5,463.5 455.5,463.5 454.5,463.5 Z"/></g>
<g><path style="opacity:1" fill="#1023b4" d="M 108.5,48.5 C 112.846,56.8793 115.179,65.8793 115.5,75.5C 114.876,73.1663 114.043,70.8329 113,68.5C 112.833,107.667 112.667,146.833 112.5,186C 112.356,227.858 112.856,269.691 114,311.5C 114.167,233.999 114.667,156.666 115.5,79.5C 115.333,154.167 115.5,228.834 116,303.5C 116.439,313.143 118.273,322.476 121.5,331.5C 120.883,331.389 120.383,331.056 120,330.5C 115.755,337.067 114.922,336.567 117.5,329C 115.607,323.849 113.94,318.683 112.5,313.5C 111.833,230.167 111.167,146.833 110.5,63.5C 109.277,60.9168 107.61,58.7502 105.5,57C 105.667,56.5 105.833,56 106,55.5C 106.419,56.6721 107.085,57.6721 108,58.5C 108.498,55.1832 108.665,51.8499 108.5,48.5 Z"/></g>
<g><path style="opacity:1" fill="#0a1bd9" d="M 115.5,75.5 C 115.5,76.8333 115.5,78.1667 115.5,79.5C 114.667,156.666 114.167,233.999 114,311.5C 112.856,269.691 112.356,227.858 112.5,186C 112.667,146.833 112.833,107.667 113,68.5C 114.043,70.8329 114.876,73.1663 115.5,75.5 Z"/></g>
<g><path style="opacity:1" fill="#3841b6" d="M 291.5,65.5 C 291.658,68.9023 291.324,72.2356 290.5,75.5C 290.667,154.834 290.5,234.167 290,313.5C 289.998,316.051 289.164,318.051 287.5,319.5C 287.933,316.834 288.433,314.168 289,311.5C 289.333,231.5 289.667,151.5 290,71.5C 290.191,69.2922 290.691,67.2922 291.5,65.5 Z"/></g>
<g><path style="opacity:1" fill="#0920bd" d="M 311.5,26.5 C 310.03,30.9117 308.363,35.245 306.5,39.5C 311.804,40.2584 314.638,37.9251 315,32.5C 316.464,33.459 317.297,34.7923 317.5,36.5C 315.038,42.7383 310.371,45.4049 303.5,44.5C 303.657,43.1266 303.49,41.7932 303,40.5C 302.358,42.7619 301.525,44.9285 300.5,47C 301.428,47.3879 302.095,48.0546 302.5,49C 301.544,50.3651 300.878,51.8651 300.5,53.5C 301.268,56.1541 301.434,58.8208 301,61.5C 300.29,62.9733 299.124,63.6399 297.5,63.5C 297.294,71.3011 296.628,71.3011 295.5,63.5C 294.5,63.5 293.5,63.5 292.5,63.5C 292.146,67.6372 292.646,71.6372 294,75.5C 294.167,151.502 294.667,227.502 295.5,303.5C 296.329,298.198 296.829,292.864 297,287.5C 297.167,218.164 297.667,148.831 298.5,79.5C 299.826,155.015 299.826,230.515 298.5,306C 299.867,310.401 300.533,314.901 300.5,319.5C 299.5,319.5 298.5,319.5 297.5,319.5C 296.386,306.282 295.386,306.282 294.5,319.5C 293.5,319.5 292.5,319.5 291.5,319.5C 291.263,315.727 291.763,312.06 293,308.5C 293.667,232.167 293.667,155.833 293,79.5C 292.667,77.8333 292.333,76.1667 292,74.5C 291.617,75.056 291.117,75.3893 290.5,75.5C 291.324,72.2356 291.658,68.9023 291.5,65.5C 294.247,50.3371 300.913,37.3371 311.5,26.5 Z"/></g>
<g><path style="opacity:1" fill="#262bb3" d="M 859.5,79.5 C 861.093,80.3479 862.26,81.6813 863,83.5C 863.483,84.448 863.649,85.448 863.5,86.5C 865.144,86.2865 866.644,86.6198 868,87.5C 869.412,91.728 870.246,96.0613 870.5,100.5C 866.052,93.9383 862.385,86.9383 859.5,79.5 Z"/></g>
<g><path style="opacity:1" fill="#fdfdfe" d="M 566.5,93.5 C 589.5,93.5 612.5,93.5 635.5,93.5C 640.306,94.5926 645.306,95.2593 650.5,95.5C 662.461,98.0782 673.461,102.912 683.5,110C 693.497,119.011 699.664,130.177 702,143.5C 703.339,152.107 703.839,160.774 703.5,169.5C 701.387,178.827 698.054,187.827 693.5,196.5C 683.975,209.111 671.308,216.944 655.5,220C 650.124,220.785 644.791,221.785 639.5,223C 618.169,223.5 596.836,223.667 575.5,223.5C 575.5,180.833 575.5,138.167 575.5,95.5C 591.503,95.6666 607.503,95.4999 623.5,95C 605.26,94.1748 587.093,94.3415 569,95.5C 568.5,138.165 568.333,180.832 568.5,223.5C 567.833,223.5 567.167,223.5 566.5,223.5C 566.5,180.167 566.5,136.833 566.5,93.5 Z"/></g>
<g><path style="opacity:1" fill="#4f56c7" d="M 635.5,93.5 C 640.179,93.3342 644.845,93.5008 649.5,94C 650.056,94.3826 650.389,94.8826 650.5,95.5C 645.306,95.2593 640.306,94.5926 635.5,93.5 Z"/></g>
<g><path style="opacity:1" fill="#1927a2" d="M 566.5,93.5 C 566.5,136.833 566.5,180.167 566.5,223.5C 565.828,180.627 565.161,137.627 564.5,94.5C 564.957,93.7025 565.624,93.3691 566.5,93.5 Z"/></g>
<g><path style="opacity:1" fill="#fcfeef" d="M 575.5,223.5 C 575.167,223.5 574.833,223.5 574.5,223.5C 574.5,180.833 574.5,138.167 574.5,95.5C 573.167,95.5 571.833,95.5 570.5,95.5C 570.172,138.239 570.506,180.906 571.5,223.5C 570.5,223.5 569.5,223.5 568.5,223.5C 568.333,180.832 568.5,138.165 569,95.5C 587.093,94.3415 605.26,94.1748 623.5,95C 607.503,95.4999 591.503,95.6666 575.5,95.5C 575.5,138.167 575.5,180.833 575.5,223.5 Z"/></g>
<g><path style="opacity:1" fill="#fefdfe" d="M 574.5,223.5 C 573.5,223.5 572.5,223.5 571.5,223.5C 570.506,180.906 570.172,138.239 570.5,95.5C 571.833,95.5 573.167,95.5 574.5,95.5C 574.5,138.167 574.5,180.833 574.5,223.5 Z"/></g>
<g><path style="opacity:1" fill="#2930ad" d="M 1217.5,111.5 C 1216.58,115.299 1214.91,118.632 1212.5,121.5C 1212.54,117.991 1211.88,114.658 1210.5,111.5C 1211.5,111.5 1212.5,111.5 1213.5,111.5C 1213.28,112.675 1213.61,113.675 1214.5,114.5C 1215.14,113.007 1216.14,112.007 1217.5,111.5 Z"/></g>
<g><path style="opacity:1" fill="#2129b8" d="M 815.5,106.5 C 820.74,122.291 823.073,138.624 822.5,155.5C 823.188,173.303 821.188,190.636 816.5,207.5C 815.813,196.889 816.147,186.223 817.5,175.5C 818.228,178.212 819.061,180.879 820,183.5C 820.667,167.167 820.667,150.833 820,134.5C 818.873,137.377 818.206,140.377 818,143.5C 817.273,137.306 817.439,131.14 818.5,125C 816.749,119.035 815.749,112.869 815.5,106.5 Z"/></g>
<g><path style="opacity:1" fill="#3133bc" d="M 703.5,169.5 C 702.655,174.034 702.655,178.534 703.5,183C 703.056,184.762 702.556,184.595 702,182.5C 700.282,184.202 700.115,186.035 701.5,188C 700.552,188.483 699.552,188.649 698.5,188.5C 697.409,191.349 697.409,194.182 698.5,197C 698.167,197.5 697.833,198 697.5,198.5C 696.476,197.147 695.143,196.48 693.5,196.5C 698.054,187.827 701.387,178.827 703.5,169.5 Z"/></g>
<g><path style="opacity:1" fill="#2e34ad" d="M 1159.5,218.5 C 1157.2,223.102 1154.53,227.435 1151.5,231.5C 1152.83,227.186 1154.16,222.853 1155.5,218.5C 1156.83,218.5 1158.17,218.5 1159.5,218.5 Z"/></g>
<g><path style="opacity:1" fill="#1b29a3" d="M 566.5,314.5 C 566.831,344.671 566.498,374.671 565.5,404.5C 565.5,375.5 565.5,346.5 565.5,317.5C 563.5,317.5 561.5,317.5 559.5,317.5C 559.5,316.5 559.5,315.5 559.5,314.5C 561.833,314.5 564.167,314.5 566.5,314.5 Z"/></g>
<g><path style="opacity:1" fill="#606bd1" d="M 989.5,318.5 C 990.499,370.664 990.832,422.997 990.5,475.5C 1028.15,477.494 1066.15,478.161 1104.5,477.5C 1066.34,478.499 1028,478.832 989.5,478.5C 989.5,425.167 989.5,371.833 989.5,318.5 Z"/></g>
<g><path style="opacity:1" fill="#fbfcfd" d="M -0.5,-0.5 C -0.166667,-0.5 0.166667,-0.5 0.5,-0.5C 0.167191,106.335 0.500525,213.001 1.5,319.5C 4.41891,381.369 32.7522,427.369 86.5,457.5C 96.4755,463.501 107.142,468.168 118.5,471.5C 140.312,478.529 162.645,482.862 185.5,484.5C 123.5,484.5 61.5,484.5 -0.5,484.5C -0.5,322.833 -0.5,161.167 -0.5,-0.5 Z"/></g>
<g><path style="opacity:1" fill="#4649a1" d="M 225.5,381.5 C 223.22,383.223 220.553,383.889 217.5,383.5C 219.838,381.96 222.505,381.294 225.5,381.5 Z"/></g>
<g><path style="opacity:1" fill="#2a2fb9" d="M 86.5,457.5 C 88.9393,458.053 91.2727,458.053 93.5,457.5C 93.6691,458.397 94.0024,459.397 94.5,460.5C 97.8497,458.726 99.5164,459.726 99.5,463.5C 102.833,464.7 106.167,464.7 109.5,463.5C 110.167,463.833 110.833,464.167 111.5,464.5C 110.624,465.251 109.624,465.751 108.5,466C 110.808,467.867 113.475,468.867 116.5,469C 117.381,469.708 118.047,470.542 118.5,471.5C 107.142,468.168 96.4755,463.501 86.5,457.5 Z"/></g>
<g><path style="opacity:1" fill="#0b1fbc" d="M 831.5,465.5 C 833.588,467.336 834.921,469.669 835.5,472.5C 834.5,472.5 833.5,472.5 832.5,472.5C 832.66,470.801 832.494,469.134 832,467.5C 818.055,468.825 803.888,469.491 789.5,469.5C 775.5,469.167 761.5,468.833 747.5,468.5C 745.167,467.833 742.833,467.167 740.5,466.5C 770.952,466.773 801.285,466.44 831.5,465.5 Z"/></g>
<g><path style="opacity:1" fill="#061ecc" d="M 499.5,467.5 C 501.833,467.5 504.167,467.5 506.5,467.5C 506.5,468.5 506.5,469.5 506.5,470.5C 492.244,472.236 477.911,472.903 463.5,472.5C 463.5,471.5 463.5,470.5 463.5,469.5C 475.171,469.667 486.838,469.5 498.5,469C 499.056,468.617 499.389,468.117 499.5,467.5 Z"/></g>
<g><path style="opacity:1" fill="#0422bb" d="M 1103.5,472.5 C 1103.5,473.167 1103.5,473.833 1103.5,474.5C 954.167,473.833 954.167,473.167 1103.5,472.5 Z"/></g>
<g><path style="opacity:1" fill="#1f25ab" d="M 1104.5,319.5 C 1104.5,372.167 1104.5,424.833 1104.5,477.5C 1066.15,478.161 1028.15,477.494 990.5,475.5C 1009.43,476.161 1028.43,476.494 1047.5,476.5C 1066.51,476.5 1085.18,475.833 1103.5,474.5C 1103.5,473.833 1103.5,473.167 1103.5,472.5C 1103.17,421.331 1103.5,370.331 1104.5,319.5 Z"/></g>
<g><path style="opacity:1" fill="#6874c7" d="M 837.5,475.5 C 838.404,476.209 838.737,477.209 838.5,478.5C 809.995,478.831 781.662,478.498 753.5,477.5C 781.853,478.158 809.853,477.492 837.5,475.5 Z"/></g>
</svg>
